Coordinates
version=1
nRows=12
nColumns=24
inDegrees=yes

Units are S.I. units (second, meters, Newtons, ...)
Angles are in degrees.

endheader
time	pelvis_tilt	pelvis_list	pelvis_rotation	pelvis_tx	pelvis_ty	pelvis_tz	hip_flexion_r	hip_adduction_r	hip_rotation_r	knee_angle_r	ankle_angle_r	subtalar_angle_r	mtp_angle_r	hip_flexion_l	hip_adduction_l	hip_rotation_l	knee_angle_l	ankle_angle_l	subtalar_angle_l	mtp_angle_l	lumbar_extension	lumbar_bending	lumbar_rotation
      3.61500000	    -17.23798214	     10.82477417	     -5.44299693	     -2.34139723	     -0.03498781	     -0.27447969	     22.66963807	     -8.45252737	      2.43257833	    -65.96021666	    -36.07352401	    -20.53308286	      0.09654133	     38.79594402	     13.43215347	      4.39222017	    -25.76033850	     17.89301673	     10.30297710	    -71.54286240	     14.24068704	     -9.34653304	      7.35653235
      3.62000000	    -17.20779913	     10.81173102	     -5.59273807	     -2.33428883	     -0.03349153	     -0.27451472	     23.83419942	     -7.94338893	      3.05323006	    -66.89489694	    -34.70013445	    -21.14942614	     -0.05877547	     37.95444756	     13.39316363	      4.26780428	    -25.28352793	     18.35056635	     10.56129712	    -71.49220961	     14.22895880	     -9.23298391	      7.31015117
      3.62500000	    -17.20426865	     10.80337954	     -5.73395704	     -2.32718741	     -0.03201090	     -0.27452903	     25.01546113	     -7.43380752	      3.64016146	    -67.75622827	    -33.21753602	    -21.58412310	     -0.61665622	     37.11321401	     13.37372246	      4.22488236	    -24.74964410	     18.73891831	     10.70911014	    -71.47806737	     14.24880779	     -9.12492266	      7.28152527
      3.63000000	    -17.15799265	     10.69646672	     -5.69621886	     -2.32007151	     -0.03048644	     -0.27459678	     26.09261500	     -6.93038659	      3.79223509	    -68.61703024	    -31.09074994	    -21.86952514	     -4.46664874	     36.20133309	     13.37559860	      4.40751368	    -24.23429188	     19.14081561	     10.88587135	    -71.61819216	     14.17809623	     -8.99684950	      7.02738343
      3.63500000	    -17.10917398	     10.66572314	     -5.82883201	     -2.31295043	     -0.02888937	     -0.27456052	     27.15063078	     -6.41743630	      4.30350096	    -69.20856421	    -29.91767131	    -22.35426631	     -4.39342947	     35.24546760	     13.36271629	      4.48003321	    -23.58235402	     19.41475439	     10.90704279	    -71.58030900	     14.15188204	     -8.88566642	      6.97228715
      3.64000000	    -17.04641453	     10.60111087	     -5.83283210	     -2.30580410	     -0.02728487	     -0.27462116	     28.14906793	     -5.96429672	      4.56222060	    -69.77255886	    -28.19475906	    -22.50004760	     -6.05385046	     34.23360552	     13.40830356	      4.78735675	    -22.88631553	     19.60823224	     10.83870877	    -71.53451328	     14.08839767	     -8.78872352	      6.77299482
      3.64500000	    -17.01348835	     10.55854812	     -5.93653334	     -2.29875476	     -0.02573797	     -0.27452966	     29.17650016	     -5.47572121	      4.96988600	    -70.18389916	    -26.89047433	    -22.77497351	     -5.91243347	     33.26771616	     13.39155799	      4.89549623	    -22.17064969	     19.79915517	     10.82186768	    -71.50303216	     14.06566097	     -8.68781692	      6.70693363
      3.65000000	    -16.96650533	     10.45781858	     -5.96789217	     -2.29167989	     -0.02414371	     -0.27454016	     30.11932252	     -4.99534537	      5.24133096	    -70.46302459	    -25.49169303	    -22.92874509	     -5.77037141	     32.24068918	     13.37994643	      5.20479343	    -21.40175654	     19.91906862	     10.68752047	    -71.47320990	     14.01379683	     -8.55041478	      6.54308234
      3.65500000	    -16.91754788	     10.32276867	     -5.98138451	     -2.28462039	     -0.02254528	     -0.27453280	     31.01700474	     -4.50965242	      5.44059509	    -70.62389133	    -24.03703243	    -23.02197346	     -5.56650214	     31.19000780	     13.33956186	      5.55574764	    -20.60070741	     20.00105412	     10.52338998	    -71.43690264	     13.95074417	     -8.38806433	      6.35610287
      3.66000000	    -16.87138279	     10.15228581	     -5.97083432	     -2.27758999	     -0.02096017	     -0.27452743	     31.87240739	     -4.02178628	      5.57004487	    -70.66363195	    -22.52547264	    -23.04671149	     -5.24856709	     30.12655230	     13.27063684	      5.95804532	    -19.77706312	     20.04837500	     10.33900919	    -71.39233914	     13.87966835	     -8.20344171	      6.14517623
      3.66500000	    -16.83422859	      9.93781284	     -5.93922636	     -2.27058691	     -0.01938737	     -0.27452256	     32.68762989	     -3.51784913	      5.64165437	    -70.57298872	    -20.98093596	    -22.99707050	     -4.77742545	     29.05953857	     13.15762619	      6.39324743	    -18.93598075	     20.06641766	     10.15116044	    -71.34388799	     13.80738178	     -7.98454974	      5.89986709
      3.67000000	    -16.78224058	      9.72876808	     -5.91752145	     -2.26358905	     -0.01782287	     -0.27453830	     33.45303947	     -3.04720179	      5.69906941	    -70.35208011	    -19.48832937	    -22.94589005	     -3.92046882	     27.93151131	     13.05888793	      6.99226083	    -18.00432390	     19.97472461	      9.75499479	    -71.23827650	     13.72021076	     -7.76862714	      5.70747958
